<svg width="520" height="150" viewBox="0 0 520 150" fill="none" xmlns="http://www.w3.org/2000/svg">
  <rect width="520" height="150" rx="18" fill="white"/>
  <g transform="translate(28 18)">
    <path d="M86 13C49 13 19 43 19 80c0 28 17 52 41 62 14 6 32 8 48 3 20-6 35-21 42-40" stroke="url(#arc)" stroke-width="12" stroke-linecap="round"/>
    <path d="M95 35h-22c-7 0-12 5-12 12v25H36c-7 0-12 5-12 12v21c0 7 5 12 12 12h25v25c0 7 5 12 12 12h22c7 0 12-5 12-12v-25h25c7 0 12-5 12-12V84c0-7-5-12-12-12h-25V47c0-7-5-12-12-12Z" fill="url(#cross)"/>
    <path d="M25 98h50l9-20 14 42 17-72 19 50h50" stroke="white" stroke-width="8" stroke-linecap="round" stroke-linejoin="round"/>
    <path d="M88 134c18-31 46-18 69-40 4-4 10 1 7 7-13 25-34 41-65 49l-17 5 6-21Z" fill="#075EA8"/>
  </g>
  <text x="190" y="73" font-family="Arial, Helvetica, sans-serif" font-size="42" font-weight="800" letter-spacing="2">
    <tspan fill="#075EA8">MEDI</tspan><tspan fill="#12BFA7">CARE</tspan>
  </text>
  <g transform="translate(190 94)">
    <path d="M0 0h34" stroke="#075EA8" stroke-width="3"/>
    <text x="46" y="7" font-family="Arial, Helvetica, sans-serif" font-size="15" font-weight="700" letter-spacing="2.4" fill="#075EA8">THIẾT BỊ Y TẾ CHÍNH HÃNG</text>
    <path d="M300 0h34" stroke="#075EA8" stroke-width="3"/>
  </g>
  <defs>
    <linearGradient id="arc" x1="21" y1="27" x2="165" y2="121" gradientUnits="userSpaceOnUse">
      <stop stop-color="#168FE4"/>
      <stop offset="1" stop-color="#08BDA8"/>
    </linearGradient>
    <linearGradient id="cross" x1="24" y1="35" x2="144" y2="154" gradientUnits="userSpaceOnUse">
      <stop stop-color="#1087DE"/>
      <stop offset="1" stop-color="#15C5A8"/>
    </linearGradient>
  </defs>
</svg>
